<svg width="65" height="65" viewBox="0 0 65 65" fill="none" xmlns="http://www.w3.org/2000/svg">
<path d="M40.951 63.8653C23.6076 68.5575 5.81217 58.2687 1.12322 40.9134C-0.96703 33.225 -0.11963 24.9713 3.49594 17.8483C11.5745 1.84978 31.0647 -4.59486 47.1088 3.48921C63.1529 11.5733 69.5931 31.0768 61.5146 47.1319C57.6166 54.8202 50.8374 60.643 42.6458 63.3565C42.0809 63.5261 41.516 63.6957 40.951 63.8653ZM24.3985 2.47163C23.8335 2.64123 23.3251 2.75429 22.7602 2.98042C6.4336 8.35095 -2.49235 25.9324 2.87452 42.2701C8.24138 58.6079 25.8108 67.4834 42.1374 62.1128C58.464 56.7423 67.3334 39.1609 61.9665 22.8231C56.8821 7.10725 40.3296 -1.8248 24.3985 2.47163Z" fill="#353535"/>
<path d="M19.1403 47.2951L16.4524 48.4879L13.1868 41.1287L12.6763 39.908L12.1331 38.5665C11.8847 39.2112 11.7044 39.6417 11.5922 39.8581L10.6519 41.6809L8.63785 40.6381L11.2874 35.558L13.4969 34.5776L19.1403 47.2951Z" fill="#353535"/>
<path d="M28.6708 35.4551C29.6564 37.6762 30.0206 39.4824 29.7634 40.8736C29.512 42.2623 28.6295 43.2925 27.1159 43.9642C25.6487 44.6152 24.2966 44.5558 23.0596 43.7859C21.8284 43.0135 20.7354 41.5515 19.7807 39.4C18.7848 37.1558 18.4138 35.3422 18.6678 33.9593C18.9192 32.5706 19.7988 31.5417 21.3066 30.8726C22.7738 30.2215 24.1284 30.2867 25.3706 31.0682C26.6186 31.8471 27.7186 33.3094 28.6708 35.4551ZM22.4512 38.215C23.1434 39.775 23.7735 40.835 24.3413 41.3952C24.9124 41.9469 25.5169 42.0813 26.1548 41.7982C26.7811 41.5203 27.0816 40.9774 27.0563 40.1696C27.031 39.3618 26.6761 38.1866 25.9916 36.644C25.2993 35.084 24.6606 34.0278 24.0754 33.4754C23.4934 32.9146 22.8921 32.7719 22.2716 33.0473C21.6395 33.3278 21.339 33.8706 21.3701 34.6759C21.3986 35.4753 21.759 36.655 22.4512 38.215Z" fill="#353535"/>
<path d="M38.8483 30.9389C39.8339 33.1599 40.1981 34.9661 39.9409 36.3574C39.6895 37.7461 38.807 38.7763 37.2934 39.4479C35.8262 40.099 34.4741 40.0396 33.2371 39.2697C32.0059 38.4973 30.9129 37.0353 29.9582 34.8838C28.9623 32.6395 28.5913 30.826 28.8453 29.443C29.0967 28.0543 29.9763 27.0254 31.4841 26.3564C32.9513 25.7053 34.3059 25.7705 35.5481 26.552C36.7961 27.3309 37.8961 28.7932 38.8483 30.9389ZM32.6287 33.6988C33.3209 35.2588 33.951 36.3188 34.5188 36.8789C35.0899 37.4307 35.6944 37.565 36.3323 37.282C36.9586 37.004 37.2591 36.4612 37.2338 35.6533C37.2085 34.8455 36.8536 33.6703 36.1691 32.1278C35.4768 30.5678 34.8381 29.5116 34.2529 28.9592C33.6709 28.3984 33.0696 28.2557 32.4491 28.531C31.817 28.8115 31.5165 29.3544 31.5476 30.1597C31.5761 30.9591 31.9365 32.1388 32.6287 33.6988Z" fill="#353535"/>
<path d="M41.1011 26.8886C41.4279 27.6251 41.7362 28.1477 42.0259 28.4564C42.3188 28.7568 42.6102 28.8426 42.9002 28.714C43.4569 28.4669 43.411 27.6127 42.7626 26.1513C42.1192 24.7015 41.5192 24.1002 40.9625 24.3472C40.6725 24.4759 40.5406 24.7496 40.5668 25.1683C40.5962 25.5787 40.7743 26.1521 41.1011 26.8886ZM44.9469 25.1612C45.5388 26.495 45.7259 27.6128 45.5083 28.5145C45.2881 29.4104 44.6793 30.0797 43.6818 30.5223C42.725 30.9469 41.8338 30.9329 41.0082 30.4802C40.18 30.0217 39.4777 29.1429 38.9013 27.8439C37.7253 25.1937 38.1376 23.4247 40.1383 22.5369C41.1184 22.102 42.0225 22.1138 42.8506 22.5723C43.682 23.0224 44.3808 23.8854 44.9469 25.1612ZM49.2487 18.7129L47.8374 34.5609L45.7497 35.4873L47.161 19.6393L49.2487 18.7129ZM52.2628 28.016C52.5897 28.7525 52.8979 29.2751 53.1876 29.5838C53.4805 29.8842 53.772 29.97 54.062 29.8413C54.6187 29.5943 54.5728 28.7401 53.9243 27.2787C53.281 25.8289 52.6809 25.2275 52.1242 25.4746C51.8343 25.6033 51.7024 25.877 51.7285 26.2957C51.7579 26.7061 51.936 27.2795 52.2628 28.016ZM56.1087 26.2886C56.698 27.6166 56.8838 28.7315 56.6662 29.6332C56.446 30.5291 55.8372 31.1984 54.8397 31.641C53.8829 32.0656 52.9916 32.0516 52.1661 31.5989C51.3379 31.1404 50.6369 30.2645 50.063 28.9713C48.887 26.3211 49.2994 24.5521 51.3001 23.6643C52.2801 23.2294 53.1842 23.2412 54.0124 23.6997C54.8438 24.1498 55.5425 25.0128 56.1087 26.2886Z" fill="#353535"/>
<path fill-rule="evenodd" clip-rule="evenodd" d="M28.8518 7.96863C21.9571 8.81377 16.0919 12.6857 12.2032 18.2692C12.0567 18.4795 11.7675 18.5313 11.5572 18.3848C11.3469 18.2383 11.2951 17.9491 11.4416 17.7388C15.4655 11.9611 21.5563 7.92784 28.7389 7.04742C35.4261 6.2277 41.856 8.28881 46.9887 12.3182C47.1903 12.4765 47.2254 12.7682 47.0672 12.9698C46.9089 13.1713 46.6172 13.2065 46.4156 13.0482C41.4588 9.15692 35.2719 7.18165 28.8518 7.96863Z" fill="#353535"/>
<path fill-rule="evenodd" clip-rule="evenodd" d="M10.4032 20.6061C10.6268 20.7314 10.7065 21.0142 10.5812 21.2378C9.57171 23.0389 8.78161 24.9775 8.22462 27.0071C8.15679 27.2543 7.90146 27.3997 7.6543 27.3318C7.40715 27.264 7.26178 27.0087 7.32961 26.7615C7.90594 24.6614 8.72423 22.6527 9.77153 20.784C9.89683 20.5605 10.1796 20.4808 10.4032 20.6061Z" fill="#353535"/>
<path fill-rule="evenodd" clip-rule="evenodd" d="M38.5723 56.6135C45.6657 54.8574 51.364 50.3709 54.8257 44.5492C54.9567 44.329 55.2415 44.2566 55.4618 44.3876C55.6821 44.5186 55.7545 44.8033 55.6235 45.0236C52.0401 51.0498 46.1394 55.6963 38.7953 57.5144C31.9574 59.2072 25.082 58.1475 19.339 55.0402C19.1136 54.9183 19.0298 54.6367 19.1517 54.4112C19.2737 54.1858 19.5553 54.102 19.7807 54.2239C25.3283 57.2256 31.9674 58.2486 38.5723 56.6135Z" fill="#353535"/>
<path fill-rule="evenodd" clip-rule="evenodd" d="M56.0322 43.0816C55.8083 42.9568 55.7281 42.6741 55.8529 42.4503C56.1835 41.8576 56.4897 41.3059 56.7091 40.5161C56.7777 40.2692 57.0335 40.1246 57.2805 40.1932C57.5274 40.2618 57.672 40.5176 57.6034 40.7645C57.3529 41.6664 56.999 42.3007 56.6684 42.8935L56.6635 42.9024C56.5386 43.1262 56.256 43.2064 56.0322 43.0816Z" fill="#353535"/>
<path fill-rule="evenodd" clip-rule="evenodd" d="M7.42628 29.3002C7.67797 29.3485 7.84283 29.5917 7.79451 29.8434C7.73214 30.1682 7.6792 30.4498 7.68119 30.7861C7.6827 31.0424 7.47617 31.2514 7.21989 31.2529C6.9636 31.2544 6.75461 31.0479 6.7531 30.7916C6.75053 30.3585 6.81977 29.998 6.88084 29.6799C6.88158 29.6761 6.88231 29.6722 6.88305 29.6684C6.93137 29.4167 7.17458 29.2519 7.42628 29.3002Z" fill="#353535"/>
</svg>
